# xmcd CD database file
#
# Track frame offsets:
#	300
#	19901
#	37431
#	56811
#	73777
#	93394
#	106837
#	121932
#
# Disc length: 1806 seconds
#
# Revision: 1
# Processed by: cddbd v1.5.2PL0 Copyright (c) Steve Scherf et al.
# Submitted via: CDex 1.51
#
DISCID=73070a08
DTITLE=Various Artist - Proburn-33
DYEAR=1900
DGENRE=Blues
TTITLE0=Bryan Adams - I Do It For You (everything i do)
TTITLE1=Eric Clapton - Wonderful Tonight
TTITLE2=Sex Pistols - My Way
TTITLE3=Sex Pistols - Anarchy In The Uk
TTITLE4=Jennifer Lopez - Ain't It Funny
TTITLE5=Eagles The - Tequila Sunrise
TTITLE6=Rocky Horror Picture Show - Time Warp (for solo singer)
TTITLE7=Neil Diamond - I'm A Believer
EXTD=
EXTT0=
EXTT1=
EXTT2=
EXTT3=
EXTT4=
EXTT5=
EXTT6=
EXTT7=
PLAYORDER=
